Coordinates
version=1
nRows=11
nColumns=40
inDegrees=yes

Units are S.I. units (second, meters, Newtons, ...)
Angles are in degrees.

endheader
time	pelvis_tilt	pelvis_list	pelvis_rotation	pelvis_tx	pelvis_ty	pelvis_tz	hip_flexion_r	hip_adduction_r	hip_rotation_r	knee_angle_r	knee_angle_r_beta	ankle_angle_r	subtalar_angle_r	mtp_angle_r	hip_flexion_l	hip_adduction_l	hip_rotation_l	knee_angle_l	knee_angle_l_beta	ankle_angle_l	subtalar_angle_l	mtp_angle_l	lumbar_extension	lumbar_bending	lumbar_rotation	arm_flex_r	arm_add_r	arm_rot_r	elbow_flex_r	pro_sup_r	wrist_flex_r	wrist_dev_r	arm_flex_l	arm_add_l	arm_rot_l	elbow_flex_l	pro_sup_l	wrist_flex_l	wrist_dev_l
      0.00000000	      0.00805021	     -3.37542034	      5.11399659	     -1.29556192	      0.89728938	     -1.45288343	     17.19256934	      6.82097551	    -21.64991317	    -19.85010817	     -0.34644974	      1.03574483	     -5.76682116	      1.39020156	     -1.50918220	      8.99774186	     10.36084850	    -44.88145986	     -0.78332925	    -15.56681097	     -8.81938220	     -6.08939908	     -6.50102958	      4.94850894	     -3.10221858	      0.91737809	     -8.54450312	     20.87465255	     13.79369189	     89.95437384	      0.00000000	      0.00000000	     11.11350566	     12.24846377	     -5.83310309	     35.91319865	     89.95437384	      0.00000000	      0.00000000
      0.01000000	      0.38932765	     -3.12410976	      4.77635381	     -1.28582701	      0.89823293	     -1.45239141	     16.11203358	      6.71586942	    -21.46276769	    -20.05697333	     -0.35006022	      1.52507167	     -5.53374851	      1.30908856	     -0.46966834	      8.95007810	      9.90153640	    -47.12919931	     -0.82255970	    -15.21949422	     -8.06981310	     -6.11805084	     -7.04544442	      4.63943563	     -2.65458485	      1.27676466	     -8.62536778	     20.85439831	     14.24221333	     89.95437384	      0.00000000	      0.00000000	     10.65081776	     11.97160847	     -6.03495364	     34.98862597	     89.95437384	      0.00000000	      0.00000000
      0.02000000	      0.09586350	     -3.75253882	      5.08111634	     -1.27648234	      0.89775927	     -1.45229699	     15.73200486	      7.39775310	    -22.01749273	    -19.88439898	     -0.34704823	      2.42255986	     -4.90244400	      1.24989824	      1.95264071	      9.73231758	      8.65065300	    -50.00466740	     -0.87274609	    -13.22756115	     -4.80564929	     -6.59653935	     -6.58859284	      5.27434087	     -2.71047279	      1.42235208	     -8.91914569	     20.79633878	     14.94637779	     89.95437384	      0.00000000	      0.00000000	     10.48242021	     11.66959913	     -7.29018023	     33.17687711	     89.95437384	      0.00000000	      0.00000000
      0.03000000	      0.47976396	     -3.92915585	      4.97447146	     -1.26676390	      0.89828466	     -1.45179168	     14.58800745	      7.74910550	    -22.06517850	    -19.88294257	     -0.34702281	      3.35745607	     -4.48362919	      1.07825869	      3.18637034	     10.20701373	      8.20127520	    -52.09472749	     -0.90922452	    -11.64739599	     -3.48126513	     -6.87989430	     -7.03498294	      5.44100308	     -2.37422566	      1.78042473	     -9.10053612	     20.81759502	     15.46135935	     89.95437384	      0.00000000	      0.00000000	     10.27986355	     11.27532403	     -7.75579593	     31.59427976	     89.95437384	      0.00000000	      0.00000000
      0.04000000	      0.79068652	     -4.08839104	      4.84232339	     -1.25726918	      0.89872012	     -1.45143706	     13.49909969	      8.03051824	    -22.24660215	    -19.79567060	     -0.34549963	      4.01985427	     -3.89110046	      0.90010353	      4.51522142	     10.52886358	      7.66002469	    -53.92821651	     -0.94122494	    -10.08446228	     -1.98089892	     -7.14250871	     -7.41828607	      5.59029292	     -2.01703544	      2.17730671	     -9.31004901	     20.82387373	     16.01281933	     89.95437384	      0.00000000	      0.00000000	     10.08183966	     10.89014503	     -8.39048813	     29.98965030	     89.95437384	      0.00000000	      0.00000000
      0.05000000	      1.21138134	     -4.11883445	      4.66341448	     -1.24781493	      0.89937929	     -1.45116221	     12.29618582	      8.20241918	    -22.24906463	    -19.76090982	     -0.34489294	      4.67244051	     -3.42547903	      0.72484434	      5.62897415	     10.68948379	      7.23826742	    -55.38666592	     -0.96667968	     -8.65607775	     -0.91656201	     -7.37249004	     -7.94566545	      5.60385265	     -1.70891667	      2.74778103	     -9.45859820	     20.88692598	     16.33206987	     89.95437384	      0.00000000	      0.00000000	      9.86218875	     10.50884547	     -8.94576142	     28.33092242	     89.95437384	      0.00000000	      0.00000000
      0.06000000	      1.60975972	     -4.13792120	      4.27182137	     -1.23817396	      0.90007549	     -1.45074773	     11.02177525	      8.41814470	    -22.01267371	    -19.57990026	     -0.34173373	      5.34102924	     -2.86377864	      0.52946285	      6.63418018	     10.64430713	      6.79582255	    -56.45750865	     -0.98536941	     -7.18601801	      0.28584978	     -7.59183126	     -8.43026529	      5.59363027	     -1.13210050	      3.28428856	     -9.65645544	     21.00851498	     16.63997935	     89.95437384	      0.00000000	      0.00000000	      9.63685673	     10.07515097	     -9.52497698	     26.61111356	     89.95437384	      0.00000000	      0.00000000
      0.07000000	      2.17452195	     -3.97241913	      3.95766729	     -1.22853079	      0.90112645	     -1.45072106	      9.54531425	      8.40536404	    -21.79958947	    -19.38545523	     -0.33834002	      5.90504518	     -2.26057291	      0.25540550	      7.36434470	     10.21734221	      6.23250221	    -57.11427121	     -0.99683208	     -5.63508979	      2.29065722	     -8.07508604	     -9.11004856	      5.40436208	     -0.69600196	      3.86160739	     -9.92032441	     21.60342123	     17.05418093	     89.95437384	      0.00000000	      0.00000000	      9.34851558	      9.70934227	    -10.27998458	     25.04339002	     89.95437384	      0.00000000	      0.00000000
      0.08000000	      2.58460095	     -3.84859593	      3.55264582	     -1.21907140	      0.90197993	     -1.45061933	      8.27728942	      8.46004733	    -21.26446974	    -19.23385534	     -0.33569410	      6.55433012	     -2.02665429	      0.06988010	      8.22902260	      9.87350446	      5.79911135	    -57.51998860	     -1.00391319	     -4.12364336	      2.94486193	     -8.52920017	     -9.61287554	      5.25809462	     -0.21210635	      4.58226333	    -10.09223580	     21.85728023	     17.18341205	     89.95437384	      0.00000000	      0.00000000	      9.04254195	      9.25781274	    -10.75948286	     23.37144601	     89.95437384	      0.00000000	      0.00000000
      0.09000000	      2.86498115	     -3.74955877	      3.10336667	     -1.20958707	      0.90255867	     -1.44993410	      7.23851462	      8.50261548	    -20.93685375	    -19.22407019	     -0.33552332	      7.05123404	     -1.97600790	     -0.02027992	      9.26997854	      9.61352591	      5.50559349	    -57.74141907	     -1.00777788	     -3.20034283	      3.18159122	     -8.65967972	     -9.92903196	      5.04166684	      0.21904105	      5.41288626	    -10.06870714	     21.94005039	     16.98868284	     89.95437384	      0.00000000	      0.00000000	      8.54814981	      8.92968192	    -11.07773602	     21.97365321	     89.95437384	      0.00000000	      0.00000000
      0.10000000	      3.07657301	     -3.66791338	      2.64488351	     -1.20002217	      0.90313406	     -1.44947392	      6.20163492	      8.58859588	    -20.17250835	    -19.09059454	     -0.33319373	      7.65734832	     -1.84564259	     -0.12827133	     10.23896491	      9.20868043	      5.01445812	    -57.57306976	     -1.00483963	     -1.78649988	      3.51308173	     -8.83939254	    -10.11996215	      4.89633310	      0.65880562	      6.19501979	    -10.09488731	     22.07949313	     16.85115246	     89.95437384	      0.00000000	      0.00000000	      8.08935275	      8.54230056	    -11.48475417	     20.37452922	     89.95437384	      0.00000000	      0.00000000
